<svg width="1200" height="400" xmlns="http://www.w3.org/2000/svg">
  <defs>
    <linearGradient id="copenhagenGradient" x1="0%" y1="0%" x2="100%" y2="100%">
      <stop offset="0%" style="stop-color:#E94E77;stop-opacity:1" />
      <stop offset="50%" style="stop-color:#D84A73;stop-opacity:1" />
      <stop offset="100%" style="stop-color:#C2426A;stop-opacity:1" />
    </linearGradient>
    <pattern id="copenhagenPattern" x="0" y="0" width="60" height="60" patternUnits="userSpaceOnUse">
      <circle cx="30" cy="30" r="20" fill="rgba(255,255,255,0.05)"/>
    </pattern>
  </defs>
  <rect width="1200" height="400" fill="url(#copenhagenGradient)"/>
  <rect width="1200" height="400" fill="url(#copenhagenPattern)"/>
  <!-- Stylized buildings silhouette -->
  <g fill="rgba(255,255,255,0.1)">
    <rect x="50" y="280" width="40" height="120"/>
    <rect x="100" y="260" width="50" height="140"/>
    <rect x="160" y="300" width="35" height="100"/>
    <polygon points="200,250 230,320 170,320"/>
    <rect x="240" y="270" width="45" height="130"/>
    <rect x="300" y="240" width="30" height="160"/>
    <polygon points="340,200 370,280 310,280"/>
    <rect x="380" y="290" width="55" height="110"/>
    <rect x="450" y="250" width="40" height="150"/>
    <rect x="500" y="280" width="60" height="120"/>
    <polygon points="580,220 620,300 540,300"/>
    <rect x="630" y="260" width="35" height="140"/>
    <rect x="680" y="290" width="50" height="110"/>
    <rect x="750" y="270" width="40" height="130"/>
    <polygon points="810,230 850,300 770,300"/>
    <rect x="860" y="280" width="55" height="120"/>
    <rect x="930" y="250" width="45" height="150"/>
    <rect x="990" y="290" width="60" height="110"/>
    <rect x="1060" y="260" width="40" height="140"/>
    <rect x="1120" y="280" width="50" height="120"/>
  </g>
</svg>